<svg fill="none" xmlns="http://www.w3.org/2000/svg" viewBox="0 0 16 16"><path d="M5.625 0h8.75a1.458 1.458 0 0 1 1.458 1.458v8.75a1.458 1.458 0 0 1-1.458 1.459h-8.75a1.458 1.458 0 0 1-1.458-1.459v-8.75A1.458 1.458 0 0 1 5.625 0Zm0 1.25a.208.208 0 0 0-.208.208v8.75a.209.209 0 0 0 .208.209h8.75a.208.208 0 0 0 .208-.209v-8.75a.208.208 0 0 0-.208-.208h-8.75Zm4.792 11.667a.625.625 0 1 1 1.25 0v1.458a1.458 1.458 0 0 1-1.459 1.458h-8.75A1.458 1.458 0 0 1 0 14.375v-8.75a1.458 1.458 0 0 1 1.458-1.458h1.459a.625.625 0 0 1 0 1.25H1.458a.208.208 0 0 0-.208.208v8.75a.208.208 0 0 0 .208.208h8.75a.208.208 0 0 0 .209-.208v-1.458Z" fill="#fff"/></svg>